<svg fill="none" xmlns="http://www.w3.org/2000/svg" viewBox="0 0 145 130" aria-hidden="true" role="img"><path d="M23.4 27.6h97.2c3.7 0 6.7 3 6.7 6.7v55.5c0 3.7-3 6.7-6.7 6.7H23.4c-3.7 0-6.7-3-6.7-6.7V34.2c-.1-3.6 2.9-6.6 6.7-6.6z" fill="url(#paint0_linear_25393_40677-uid-4)"></path><path d="M23.4 28.2h97.2c3.7 0 6.7 3 6.7 6.7v55.5c0 3.7-3 6.7-6.7 6.7H23.4c-3.7 0-6.7-3-6.7-6.7V34.9c-.1-3.6 2.9-6.7 6.7-6.7z" fill="#13544E"></path><path d="M131.6 118.799H12.2c-2.4 0-3.5-1.9-2.6-4.2l5.6-14.1c.8-1.8 3-3.3 5.1-3.3h103c2 0 4.4 1.5 5.1 3.3l5.8 14.1c1 2.2-.1 4.2-2.6 4.2z" fill="#9AAA97"></path><path d="M120.6 90H23.4v.9h97.2V90z" fill="url(#paint1_linear_25393_40677-uid-4)"></path><path d="M9.3 118.8c0 1.6 1.1 2.7 2.9 2.7h119.5c1.8 0 2.9-1.1 2.9-2.7v-2.7c0 1.6-1.1 2.7-2.9 2.7H12.2c-1.8 0-2.9-1.1-2.9-2.7v2.7z" fill="url(#paint2_linear_25393_40677-uid-4)"></path><path d="M83.1 118.799c0-.3-.5-.6-1-.6H61.7c-.6 0-1 .2-1 .6 0 .6.5 1 1 1H82c.6 0 1.1-.5 1.1-1z" fill="url(#paint3_linear_25393_40677-uid-4)"></path><path d="M126.9 111.1h-110c-1 0-1.5-.9-1.1-1.9l2.9-7.9c.3-.9 1.5-1.7 2.4-1.7h101.5c.9 0 2 .8 2.4 1.7l2.9 7.9c.4 1 0 1.9-1 1.9z" fill="url(#paint4_linear_25393_40677-uid-4)"></path><path d="M82.6 116.499H61.2c-.5 0-.8-.5-.8-.9l.1-2c0-.5.5-.9.9-.9h20.9c.5 0 .8.5.9.9l.1 2c.1.6-.2.9-.7.9z" fill="url(#paint5_linear_25393_40677-uid-4)"></path><path d="M1.2 119.1h141.6c.6 0 1.2.5 1.2 1.2 0 .6-.5 1.2-1.2 1.2H1.2c-.6 0-1.2-.5-1.2-1.2 0-.6.5-1.2 1.2-1.2z" fill="url(#paint6_linear_25393_40677-uid-4)"></path><path d="M120.5 28.2H71.3c-4.7 6.4-7.4 14.2-7.4 22.8 0 5.6 1.2 10.8 3.3 15.6 0 .1.1.2.1.3.3.6.6 1.3.9 1.9.1.1.1.2.2.4l1.2 2.1c.1.2.2.3.3.4.4.6.8 1.2 1.2 1.7.1.1.2.3.3.4.5.7 1 1.3 1.5 1.9.1.1.2.3.3.4.4.5.9 1 1.4 1.5l.4.4c.6.6 1.1 1.1 1.8 1.7l.3.3c.5.5 1.1.9 1.6 1.3.1.1.3.2.4.3.6.5 1.3 1 2 1.4.1.1.2.2.4.2.6.4 1.2.7 1.8 1.1.2.1.3.2.5.3.7.4 1.4.8 2.2 1.1.1 0 .1.1.2.1.2.1.3.1.5.2.5.2 1 .4 1.4.6.1.1.3.1.4.2.1 0 .2.1.3.1.4.2.9.3 1.4.5.2.1.4.1.6.2.1 0 .2.1.4.1.1 0 .2.1.3.1.7.2 1.4.4 2.2.6.2 0 .4.1.6.1.3.1.5.1.8.2.2 0 .4.1.7.1.3.1.7.1 1 .2h.6c.3 0 .5.1.8.1.4 0 .8.1 1.3.1h1c.8 0 1.5.1 2.3.1.8 0 1.5 0 2.3-.1h1c.4 0 .8-.1 1.3-.1.3 0 .5-.1.8-.1h.6c.3-.1.7-.1 1-.2.2 0 .4-.1.7-.1.3-.1.5-.1.8-.2.2 0 .4-.1.6-.1.7-.2 1.5-.4 2.2-.6.1 0 .2-.1.3-.1.1 0 .2-.1.4-.1.2-.1.4-.1.6-.2.5-.2.9-.3 1.4-.5.1 0 .2-.1.3-.1.1-.1.3-.1.4-.2.5-.2 1-.4 1.4-.6.2-.1.3-.1.5-.2.1 0 .1-.1.2-.1.7-.4 1.5-.7 2.2-1.1.2-.1.3-.2.5-.3.6-.3 1.2-.7 1.8-1.1.1-.1.2-.2.4-.2.7-.4 1.3-.9 2-1.4.1-.1.3-.2.4-.3.3-.2.6-.5.9-.8V34.9c-.6-3.7-3.6-6.7-7.3-6.7z" fill="#092622"></path><path d="M120.6 34.6H23.4V90h97.2V34.6z" fill="#E4EBE4"></path><path d="M63.9 51c0 5.6 1.2 10.8 3.3 15.6 0 .1.1.2.1.3.3.6.6 1.3.9 1.9.1.1.1.2.2.4l1.2 2.1c.1.2.2.3.3.4.4.6.8 1.2 1.2 1.7.1.1.2.3.3.4.5.7 1 1.3 1.5 1.9.1.1.2.3.3.4.4.5.9 1 1.4 1.5l.4.4c.6.6 1.1 1.1 1.8 1.7l.3.3c.5.5 1.1.9 1.6 1.3.1.1.3.2.4.3.6.5 1.3 1 2 1.4.1.1.2.2.4.2.6.4 1.2.7 1.8 1.1.2.1.3.2.5.3.7.4 1.4.8 2.2 1.1.1 0 .1.1.2.1.2.1.3.1.5.2.5.2 1 .4 1.4.6.1.1.3.1.4.2.1 0 .2.1.3.1.4.2.9.3 1.4.5.2.1.4.1.6.2.1 0 .2.1.4.1.1 0 .2.1.3.1.7.2 1.4.4 2.2.6.2 0 .4.1.6.1.3.1.5.1.8.2.2 0 .4.1.7.1.3.1.7.1 1 .2h.6c.3 0 .5.1.8.1.4 0 .8.1 1.3.1h1c.8 0 1.5.1 2.3.1.8 0 1.5 0 2.3-.1h1c.4 0 .8-.1 1.3-.1.3 0 .5-.1.8-.1h.6c.3-.1.7-.1 1-.2.2 0 .4-.1.7-.1.3-.1.5-.1.8-.2.2 0 .4-.1.6-.1.7-.2 1.5-.4 2.2-.6.1 0 .2-.1.3-.1.1 0 .2-.1.4-.1.2-.1.4-.1.6-.2.5-.2.9-.3 1.4-.5.1 0 .2-.1.3-.1.1-.1.3-.1.4-.2.5-.2 1-.4 1.4-.6.2-.1.3-.1.5-.2.1 0 .1-.1.2-.1.5-.2 1-.5 1.4-.7V34.6H68c-2.8 4.9-4.1 10.5-4.1 16.4z" fill="#D5E0D5"></path><path d="M106.4 85.7c21.318 0 38.6-17.282 38.6-38.6S127.718 8.5 106.4 8.5 67.8 25.782 67.8 47.1s17.282 38.6 38.6 38.6z" fill="#E4EBE4"></path><path d="M127 43.9c-1.9-2.9-2.9-6.2-2.9-9.6 0-10.9-4.9-19.8-17.6-19.8-12.7 0-17.6 8.8-17.6 19.8 0 3.4-1.1 6.8-2.9 9.6-1.2 1.8-2 4.8-2 8.2 0 5.6 2.2 10.2 4.9 10.2v4.4h35.3v-4.4c2.7 0 4.9-4.5 4.9-10.2-.1-3.4-.8-6.3-2.1-8.2z" fill="url(#paint7_radial_25393_40677-uid-4)"></path><path d="M106.6 18.7c8.5.1 15.3 7 15.3 15.5h1.6c0-9.4-7.5-17-16.9-17.1-9.4-.1-17.1 7.4-17.3 16.8h1.6c.1-8.4 7.2-15.3 15.7-15.2z" fill="#14A800"></path><path d="M115.3 54.201l-1.6-11.5H99.1l-1.6 11.5h17.8z" fill="url(#paint8_linear_25393_40677-uid-4)"></path><path d="M106.4 49.802c4.5 0 8.6 2.3 8.6 2.3l-.6-4.5h-9.2l1.2 2.2z" fill="url(#paint9_linear_25393_40677-uid-4)"></path><path d="M119.9 33.201c-6.2-1.6-11-6.2-13-12.2-.2-.4-.8-.4-.9 0-2 5.9-6.8 10.5-13 12.2l-2.1.5v.3c-.1 5.3 2.5 10.1 6.5 12.9l.3.3c2.5 1.7 5.5 2.7 8.7 2.7 3.4 0 6.5-1.1 9.1-2.9 3.9-2.8 6.5-7.4 6.5-12.6v-.5l-2.1-.7z" fill="url(#paint10_radial_25393_40677-uid-4)"></path><path d="M120.6 40.6l-.2.2-.2.2c-.3.3-.5.6-.8.8-.3.2-.6.4-1 .5h-.2c-.1 0-.2 0-.3.1-.2 0-.4.1-.5.1h-8.2c-.2-.5-.6-.9-1.2-.9h-.3c-.5.1-.9.1-1.3-.2-.3-.2-.7-.3-1-.3-.8.1-1.5.8-1.6 1.7-.1 1.2.7 2.2 1.7 2.2.3 0 .6-.1.9-.3.4-.3.9-.3 1.3-.2h.3c.5 0 1-.4 1.2-.9h8.3c.2 0 .5-.1.7-.1.1 0 .2-.1.3-.1h.2l.2-.1h.1c.5-.6 1.1-1.6 1.6-2.7z" fill="#CE7E3C"></path><path d="M90.9 34c0-1.2.2-2.4.5-3.6h-2.7v7.8h2.7c-.4-1.4-.6-2.8-.5-4.2z" fill="url(#paint11_linear_25393_40677-uid-4)"></path><path d="M86.6 34.3c0 2.1 1 3.9 2.1 3.9v-7.8c-1.2 0-2.1 1.7-2.1 3.9z" fill="#13544E"></path><path d="M121.9 34c0-1.2-.2-2.4-.5-3.6h2.7v7.8h-2.7c.4-1.4.5-2.8.5-4.2z" fill="url(#paint12_linear_25393_40677-uid-4)"></path><path d="M126.201 34.3c0 2.1-1 3.9-2.1 3.9v-7.8c1.2 0 2.1 1.7 2.1 3.9z" fill="#13544E"></path><path d="M107.9 41h-.3c-.5.1-.9 0-1.3-.2-.3-.2-.7-.3-1-.2-.8.1-1.5.7-1.6 1.5-.1 1.1.7 1.9 1.7 1.9.3 0 .6-.1.9-.2.4-.2.9-.3 1.3-.2h.3c.8 0 1.4-.6 1.4-1.4-.2-.6-.7-1.2-1.4-1.2z" fill="url(#paint13_radial_25393_40677-uid-4)"></path><path d="M109.2 42.3c0-.7-.6-1.3-1.3-1.3h-.3c-.6.1-1.1.7-1.1 1.3 0 .7.5 1.3 1.2 1.3h.1c.8.1 1.4-.5 1.4-1.3z" fill="url(#paint14_radial_25393_40677-uid-4)"></path><path d="M122.7 36.5c-.1.4-.1.8-.2 1.2l-.1.6v.4l-.1.3c-.2.9-.7 1.7-1.3 2.4-.3.3-.7.6-1 .9l-1.2.6-.2.1h-.2c-.1 0-.2.1-.3.1-.2 0-.5.1-.7.1h-8.6c-.3 0-.6-.3-.6-.6s.3-.6.6-.6h8.5c.2 0 .4 0 .5-.1.1 0 .2 0 .3-.1h.2c.3-.1.7-.2 1-.4.3-.2.6-.4.8-.7l.2-.2.2-.2.2-.2c.1-.1.1-.1.1-.2l.1-.2.1-.2s0-.1.1-.1v-.1c0-.1.1-.2.1-.3l.1-.3v-.3l.1-.6.3-1.2c.1-.2.3-.4.5-.3.4-.3.5-.1.5.2z" fill="#C3D2C3"></path><path d="M139.6 58.6c-3.2-4.8-8.6-7.8-14.4-7.8-1.6 0-3.1.2-4.6.6l-4.1 1.1c-6.6 1.8-13.5 1.8-20.1 0l-4.1-1.1c-1.5-.4-3.1-.6-4.6-.6-5.8 0-11.2 2.9-14.4 7.8-.9 1.3-1.6 2.7-2.1 4.1 6 13.5 19.6 23 35.3 23 15.7 0 29.3-9.4 35.3-23-.6-1.4-1.3-2.8-2.2-4.1z" fill="url(#paint15_radial_25393_40677-uid-4)"></path><path d="M88 81.1c5.5 3 11.8 4.7 18.4 4.7 6.6 0 12.9-1.7 18.4-4.7V65.5H88v15.6z" fill="url(#paint16_radial_25393_40677-uid-4)"></path><defs><linearGradient id="paint0_linear_25393_40677-uid-4" x1="16.703" y1="61.992" x2="127.197" y2="61.992" gradientUnits="userSpaceOnUse"><stop offset=".04" stop-color="#13544E"></stop><stop offset="1" stop-color="#092622"></stop></linearGradient><linearGradient id="paint1_linear_25393_40677-uid-4" x1="23.365" y1="90.434" x2="120.539" y2="90.434" gradientUnits="userSpaceOnUse"><stop offset=".04" stop-color="#092622"></stop><stop offset="1" stop-color="#13544E"></stop></linearGradient><linearGradient id="paint2_linear_25393_40677-uid-4" x1="9.257" y1="118.762" x2="134.646" y2="118.762" gradientUnits="userSpaceOnUse"><stop offset=".04" stop-color="#9AAA97"></stop><stop offset=".34" stop-color="#97A794"></stop><stop offset=".56" stop-color="#8F9F8B"></stop><stop offset=".76" stop-color="#81907B"></stop><stop offset=".94" stop-color="#6D7B64"></stop><stop offset="1" stop-color="#65735B"></stop></linearGradient><linearGradient id="paint3_linear_25393_40677-uid-4" x1="77.61" y1="124.609" x2="66.201" y2="113.198" gradientUnits="userSpaceOnUse"><stop offset=".04" stop-color="#9AAA97"></stop><stop offset=".34" stop-color="#97A794"></stop><stop offset=".56" stop-color="#8F9F8B"></stop><stop offset=".76" stop-color="#81907B"></stop><stop offset=".94" stop-color="#6D7B64"></stop><stop offset="1" stop-color="#65735B"></stop></linearGradient><linearGradient id="paint4_linear_25393_40677-uid-4" x1="71.871" y1="111.059" x2="71.871" y2="99.531" gradientUnits="userSpaceOnUse"><stop offset=".04" stop-color="#9AAA97"></stop><stop offset=".52" stop-color="#7E8D77"></stop><stop offset="1" stop-color="#65735B"></stop></linearGradient><linearGradient id="paint5_linear_25393_40677-uid-4" x1="71.85" y1="116.538" x2="71.85" y2="112.739" gradientUnits="userSpaceOnUse"><stop offset=".04" stop-color="#9AAA97"></stop><stop offset=".34" stop-color="#97A794"></stop><stop offset=".56" stop-color="#8F9F8B"></stop><stop offset=".76" stop-color="#81907B"></stop><stop offset=".94" stop-color="#6D7B64"></stop><stop offset="1" stop-color="#65735B"></stop></linearGradient><linearGradient id="paint6_linear_25393_40677-uid-4" x1="0" y1="120.308" x2="143.904" y2="120.308" gradientUnits="userSpaceOnUse"><stop stop-color="#C3D2C3" stop-opacity="0"></stop><stop offset=".01" stop-color="#C3D2C3" stop-opacity=".05"></stop><stop offset=".03" stop-color="#C3D2C3" stop-opacity=".3"></stop><stop offset=".06" stop-color="#C3D2C3" stop-opacity=".51"></stop><stop offset=".09" stop-color="#C3D2C3" stop-opacity=".69"></stop><stop offset=".12" stop-color="#C3D2C3" stop-opacity=".83"></stop><stop offset=".14" stop-color="#C3D2C3" stop-opacity=".92"></stop><stop offset=".17" stop-color="#C3D2C3" stop-opacity=".98"></stop><stop offset=".2" stop-color="#C3D2C3"></stop><stop offset=".29" stop-color="#C3D2C3"></stop><stop offset=".84" stop-color="#C3D2C3"></stop><stop offset=".87" stop-color="#C3D2C3" stop-opacity=".78"></stop><stop offset=".96" stop-color="#C3D2C3" stop-opacity=".23"></stop><stop offset="1" stop-color="#C3D2C3" stop-opacity=".01"></stop></linearGradient><linearGradient id="paint8_linear_25393_40677-uid-4" x1="97.499" y1="48.447" x2="115.293" y2="48.447" gradientUnits="userSpaceOnUse"><stop offset=".52" stop-color="#FCCD81"></stop><stop offset=".65" stop-color="#F9C276"></stop><stop offset=".878" stop-color="#F0A758"></stop><stop offset="1" stop-color="#EB9546"></stop></linearGradient><linearGradient id="paint9_linear_25393_40677-uid-4" x1="110.102" y1="52.083" x2="110.102" y2="47.601" gradientUnits="userSpaceOnUse"><stop stop-color="#CE7E3C" stop-opacity="0"></stop><stop offset="1" stop-color="#CE7E3C"></stop></linearGradient><linearGradient id="paint11_linear_25393_40677-uid-4" x1="90.015" y1="30.394" x2="90.015" y2="38.146" gradientUnits="userSpaceOnUse"><stop stop-color="#F66DBC"></stop><stop offset=".307" stop-color="#F36CBA"></stop><stop offset=".511" stop-color="#EA67B4"></stop><stop offset=".685" stop-color="#DB60A9"></stop><stop offset=".843" stop-color="#C6569A"></stop><stop offset=".987" stop-color="#AB4986"></stop><stop offset="1" stop-color="#A84884"></stop></linearGradient><linearGradient id="paint12_linear_25393_40677-uid-4" x1="122.761" y1="30.394" x2="122.761" y2="38.146" gradientUnits="userSpaceOnUse"><stop stop-color="#F66DBC"></stop><stop offset=".307" stop-color="#F36CBA"></stop><stop offset=".511" stop-color="#EA67B4"></stop><stop offset=".685" stop-color="#DB60A9"></stop><stop offset=".843" stop-color="#C6569A"></stop><stop offset=".987" stop-color="#AB4986"></stop><stop offset="1" stop-color="#A84884"></stop></linearGradient><radialGradient id="paint7_radial_25393_40677-uid-4" cx="0" cy="0" r="1" gradientUnits="userSpaceOnUse" gradientTransform="matrix(24.3942 0 0 30.1585 103.657 32.25)"><stop offset=".611" stop-color="#13544E"></stop><stop offset="1" stop-color="#0D3A35"></stop></radialGradient><radialGradient id="paint10_radial_25393_40677-uid-4" cx="0" cy="0" r="1" gradientUnits="userSpaceOnUse" gradientTransform="translate(102.547 28.374) scale(18.6427)"><stop offset=".677" stop-color="#FCCD81"></stop><stop offset=".806" stop-color="#F6B96C"></stop><stop offset="1" stop-color="#EB9546"></stop></radialGradient><radialGradient id="paint13_radial_25393_40677-uid-4" cx="0" cy="0" r="1" gradientUnits="userSpaceOnUse" gradientTransform="translate(104.505 41.215) scale(3.5782)"><stop offset=".367" stop-color="#14A800"></stop><stop offset="1" stop-color="#126B00"></stop></radialGradient><radialGradient id="paint14_radial_25393_40677-uid-4" cx="0" cy="0" r="1" gradientUnits="userSpaceOnUse" gradientTransform="translate(106.887 41.69) scale(2.5153)"><stop offset=".367" stop-color="#14A800"></stop><stop offset="1" stop-color="#126B00"></stop></radialGradient><radialGradient id="paint15_radial_25393_40677-uid-4" cx="0" cy="0" r="1" gradientUnits="userSpaceOnUse" gradientTransform="translate(104.251 50.94) scale(46.7545)"><stop offset=".677" stop-color="#F7B0B2"></stop><stop offset=".769" stop-color="#E29DA1"></stop><stop offset=".957" stop-color="#AD6C74"></stop><stop offset="1" stop-color="#A06069"></stop></radialGradient><radialGradient id="paint16_radial_25393_40677-uid-4" cx="0" cy="0" r="1" gradientUnits="userSpaceOnUse" gradientTransform="translate(105.639 62.134) scale(29.5592)"><stop offset=".677" stop-color="#F7B0B2"></stop><stop offset=".769" stop-color="#E29DA1"></stop><stop offset=".957" stop-color="#AD6C74"></stop><stop offset="1" stop-color="#A06069"></stop></radialGradient></defs></svg>