<svg xmlns="http://www.w3.org/2000/svg" viewBox="0 0 145 130" aria-hidden="true" role="img"><linearGradient id="internet-connection-161-a-uid-3" gradientUnits="userSpaceOnUse" x1="65.268" y1="50.573" x2="121.192" y2="50.573"><stop offset="0" stop-color="#c3d2c3"></stop><stop offset=".935" stop-color="#c3d2c3"></stop></linearGradient><path d="M116.4 101.1H70.1c-2.7 0-4.8-2.1-4.8-4.8V4.8c0-2.7 2.1-4.8 4.8-4.8h46.3c2.7 0 4.8 2.1 4.8 4.8v91.5c0 2.7-2.2 4.8-4.8 4.8z" fill="url(#internet-connection-161-a-uid-3)"></path><rect x="65.3" y="9.2" width="55.9" height="78.1" fill="#13544e"></rect><path d="M100 83c1.4-3.2.9-7-1.2-9.8-3.2-4.3-9.3-5.2-13.7-2.1L69.6 82.4l-4.4 3.2v1.8h32.9c.7-1.5 1.3-2.9 1.9-4.4z" fill="#0f423c"></path><linearGradient id="internet-connection-161-b-uid-3" gradientUnits="userSpaceOnUse" x1="89.226" y1="8.635" x2="97.234" y2=".627"><stop offset="0" stop-color="#65735b"></stop><stop offset=".935" stop-color="#9aaa97"></stop></linearGradient><path d="M99.8 5.7H86.7c-.6 0-1-.5-1-1 0-.6.5-1 1-1h13.1c.6 0 1 .5 1 1s-.5 1-1 1z" fill="url(#internet-connection-161-b-uid-3)"></path><path d="M65.3 87.3v-1.8 10.8c0 .4.1.8.2 1.2.2.8.6 1.6 1.2 2.1.9.9 2.1 1.4 3.4 1.4h21.1c2.5-4.5 4.8-9.1 6.9-13.8H65.3z" fill="#9aaa97"></path><radialGradient id="internet-connection-161-c-uid-3" cx="21760.385" cy="38224.434" r="500.815" gradientTransform="matrix(.07523 -.0881 .06126 .0523 -3927.924 -5.934)" gradientUnits="userSpaceOnUse"><stop offset=".677" stop-color="#eb9546"></stop><stop offset=".835" stop-color="#d6843f"></stop><stop offset="1" stop-color="#bc6f37"></stop></radialGradient><path d="M98 71.3c-2.9-4.6-8.9-6-13.5-3.2L65.3 79.8V46.4c-2 .8-3.9 1.8-5.8 2.7C44 57.1 33.7 72.4 32 89.7l-2.9 31.2h41.7l1.2-1.4C82.3 107.9 91.2 95 98.4 81.1c1.6-3.1 1.5-6.8-.4-9.8z" fill="url(#internet-connection-161-c-uid-3)"></path><radialGradient id="internet-connection-161-d-uid-3" cx="22035.865" cy="38313.406" r="260.541" gradientTransform="matrix(.07587 -.08755 .0836 .07244 -4792.074 -759.788)" gradientUnits="userSpaceOnUse"><stop offset=".677" stop-color="#bc6f37"></stop><stop offset=".835" stop-color="#d1803e"></stop><stop offset="1" stop-color="#eb9546"></stop></radialGradient><path d="M39.8 90.1h8.6l16.9-10.3V46.4c-2 .8-3.9 1.8-5.8 2.7-13.5 7-23.1 19.5-26.4 34.1l6.7 6.9z" fill="url(#internet-connection-161-d-uid-3)"></path><radialGradient id="internet-connection-161-e-uid-3" cx="22072.633" cy="38249.375" r="69.164" gradientTransform="translate(-2470.209 -4352.107) scale(.1159)" gradientUnits="userSpaceOnUse"><stop offset=".426" stop-color="#e4ebe4"></stop><stop offset="1" stop-color="#d5e0d5" stop-opacity="0"></stop></radialGradient><circle cx="88.9" cy="77.5" r="5.9" opacity=".5" fill="url(#internet-connection-161-e-uid-3)"></circle><radialGradient id="internet-connection-161-f-uid-3" cx="22066.305" cy="38256.75" r="78.488" gradientTransform="translate(-2470.209 -4352.107) scale(.1159)" gradientUnits="userSpaceOnUse"><stop offset=".752" stop-color="#d5e0d5" stop-opacity="0"></stop><stop offset="1" stop-color="#e4ebe4"></stop></radialGradient><circle cx="88.9" cy="77.5" r="5.9" opacity=".5" fill="url(#internet-connection-161-f-uid-3)"></circle><radialGradient id="internet-connection-161-g-uid-3" cx="22031.496" cy="38298.715" r="78.488" gradientTransform="translate(-2470.209 -4352.107) scale(.1159)" gradientUnits="userSpaceOnUse"><stop offset=".752" stop-color="#e4ebe4"></stop><stop offset="1" stop-color="#d5e0d5" stop-opacity="0"></stop></radialGradient><circle cx="88.9" cy="77.5" r="5.9" opacity=".5" fill="url(#internet-connection-161-g-uid-3)"></circle><radialGradient id="internet-connection-161-h-uid-3" cx="22076.357" cy="38257.758" r="62.853" gradientTransform="translate(-2470.209 -4352.107) scale(.1159)" gradientUnits="userSpaceOnUse"><stop offset=".426" stop-color="#e4ebe4"></stop><stop offset="1" stop-color="#d5e0d5" stop-opacity="0"></stop></radialGradient><path d="M93.8 74.3c.4.8.6 1.7.6 2.7 0 3.3-2.7 5.9-5.9 5.9-2.1 0-3.9-1.1-5-2.7 1 1.9 3 3.2 5.3 3.2 3.3 0 5.9-2.7 5.9-5.9.1-1.2-.2-2.3-.9-3.2z" opacity=".5" fill="url(#internet-connection-161-h-uid-3)"></path><linearGradient id="internet-connection-161-i-uid-3" gradientUnits="userSpaceOnUse" x1="23.808" y1="125.441" x2="77.537" y2="125.441"><stop offset=".677" stop-color="#f2f7f2"></stop><stop offset=".917" stop-color="#dde7dd"></stop><stop offset="1" stop-color="#d5e0d5"></stop></linearGradient><rect x="23.8" y="120.9" width="53.7" height="9.1" fill="url(#internet-connection-161-i-uid-3)"></rect><path d="M114.7 33.3c-.9.9-2.3.9-3 0-10.2-10.3-26.8-10.3-37 0-.9.9-2.3.9-3 0-.9-.9-.9-2.3 0-3 11.9-11.9 31.2-12 43.2 0 .7.7.7 2.1-.2 3zm-16 4.7c-5.6-2.3-11.9-1-16.2 3.3-.9.9-.9 2.3 0 3 .9.9 2.3.9 3 0 4.2-4.2 11-4.2 15 0 .9.9 2.3.9 3 0 .9-.9.9-2.3 0-3-1.3-1.4-2.9-2.6-4.8-3.3zm-5.6 6.8c-3.8 0-7.1 3.1-7.1 7.1 0 4 3.1 7.1 7.1 7.1 3.8 0 7.1-3.1 7.1-7.1 0-1.9-.7-3.7-2.1-5.1-1.3-1.3-3.1-2-5-2zm8.6-13.9c-8.5-3.5-18.1-1.4-24.6 5.1-.9.9-.9 2.3 0 3 .9.9 2.3.9 3 0 7.1-7.1 18.8-7.1 26.1 0 .9.9 2.3.9 3 0 .7-.9.9-2.3 0-3-2.1-2.4-4.7-4.1-7.5-5.1z" fill="#14a800"></path></svg>