<svg width="265" height="71" viewBox="0 0 265 71" fill="none" xmlns="http://www.w3.org/2000/svg">
<path d="M52.7984 3.00547V48.7871H38.1319V43.1289C33.7324 47.7378 28.6318 50.0434 22.8373 50.0434C16.0616 50.0434 10.5616 48.0178 6.33746 43.9665C2.11086 39.9176 0 33.9088 0 25.9474C0 20.9198 1.02987 16.5033 3.0896 12.6955C5.14934 8.89009 7.89079 5.93926 11.3139 3.843C14.7347 1.74675 18.4013 0.699835 22.3138 0.699835C26.2263 0.699835 29.5765 1.31094 31.9527 2.53315C34.3265 3.75535 36.4203 5.48397 38.239 7.71901L39.1812 3.00547H52.8008H52.7984ZM38.1319 31.1869V19.9776C37.2944 17.7426 35.8433 15.9628 33.7836 14.6359C31.7238 13.309 29.294 12.6444 26.5039 12.6444C23.2901 12.6444 20.5487 13.8325 18.2796 16.2063C16.008 18.5825 14.8759 21.5845 14.8759 25.2146C14.8759 27.5884 15.4334 29.7723 16.5509 31.7614C17.6684 33.753 19.1512 35.3063 21.004 36.4238C22.8543 37.5414 24.8629 38.0989 27.0273 38.0989C32.1256 38.0989 35.8263 35.7933 38.1319 31.1844V31.1869Z" fill="url(#paint0_linear_741_2409)"/>
<path d="M102.561 3.73831C105.913 5.76396 108.548 8.66123 110.471 12.4325C112.392 16.2039 113.351 20.6398 113.351 25.738C113.351 30.8363 112.285 35.114 110.157 38.7806C108.027 42.4472 105.059 45.2422 101.251 47.1608C97.4431 49.0817 93.0948 50.041 88.2084 50.041C85.5546 50.041 82.952 49.5687 80.4028 48.6264C77.8537 47.6842 75.7404 46.3403 74.0654 44.5922V70.782H59.5036V1.95613H72.0738L73.3301 7.40493C78.9177 2.9373 84.8534 0.699835 91.1398 0.699835C95.398 0.699835 99.2058 1.71266 102.558 3.73831H102.561ZM94.5994 34.9582C97.1826 32.5844 98.4754 29.58 98.4754 25.9499C98.4754 22.3198 97.3044 19.0889 94.9671 16.6786C92.6274 14.2683 89.7447 13.0656 86.324 13.0656C83.4584 13.0656 81.0334 13.6426 79.0443 14.7942C77.0552 15.9458 75.4312 17.6744 74.1725 19.98V31.1893C74.9394 33.4243 76.3199 35.2065 78.3115 36.531C80.303 37.8579 82.6233 38.5225 85.2771 38.5225C88.9072 38.5225 92.0163 37.3368 94.6019 34.9606L94.5994 34.9582Z" fill="url(#paint1_linear_741_2409)"/>
<path d="M118.238 36.811L133.654 35.1164C129.588 45.7901 122.812 60.1912 116.205 68.9998L109.767 70.0175C112.986 61.7153 116.713 46.9782 118.238 36.811Z" fill="url(#paint2_linear_741_2409)"/>
<path d="M135.519 9.8737C135.519 15.2957 131.115 19.5296 125.863 19.5296C120.611 19.5296 116.037 15.2933 116.037 9.8737C116.037 4.45411 120.441 0.217773 125.861 0.217773C131.28 0.217773 135.516 4.45168 135.516 9.8737H135.519Z" fill="url(#paint3_linear_741_2409)"/>
<path d="M230.961 38.5418L232.665 36.8376L230.961 35.1333L229.257 36.8376L230.961 38.5418ZM233.254 36.8376L234.959 35.1333L236.663 36.8376L234.959 38.5418L233.254 36.8376ZM226.893 36.8376H215.839V39.6667H219.74V51.8547H222.99V39.6667H226.89V36.8376H226.893ZM247.94 42.4958H243.977V45.4515H247.94V42.4958ZM247.899 51.8571L245.333 48.2781H243.977V51.8571H240.726V39.6691H251.191V48.2806H249.124L251.683 51.8595H247.899V51.8571ZM253.706 51.8571H256.956V47.0803H259.425C260.791 47.0803 261.567 47.0973 261.567 48.4778V51.8595H264.82V48.4145C264.82 46.009 264.467 44.7454 261.628 44.3729L265 39.6715H261.207L257.93 44.2536H256.956V39.6715H253.706V51.8595V51.8571ZM234.956 47.5818V39.6667H238.209V47.7936C238.209 51.0439 236.68 51.9545 233.106 51.9545C228.229 51.9545 227.711 50.7201 227.711 47.7936V39.6667H230.961V47.7279C230.961 49.1083 231.74 49.1278 233.106 49.1278C234.472 49.1278 234.959 49.0134 234.959 47.5842L234.956 47.5818ZM198.538 44.3339C197.173 44.3339 196.393 44.3169 196.393 42.9364V39.6667H193.143V43.0022C193.143 45.5245 193.53 46.793 196.768 47.09V51.8547H200.016V47.0949C202.539 46.8344 203.641 45.7607 203.641 43.0022V39.6667H200.391V42.7904C200.391 44.2219 199.919 44.3339 198.538 44.3339ZM191.096 42.3326H185.554V44.4119H190.755V47.0778H185.554V49.1911H191.21V51.8571H182.304V39.6691H191.096V42.3351V42.3326ZM163.52 49.1911H159.523V39.6667H156.272V51.8547H166.771V39.6667H163.52V49.1911ZM215.019 42.4958H211.9V51.8571H208.65V42.4958H205.528V39.6667H215.019V42.4958ZM142.638 51.8571H145.891V45.6657H148.36C149.726 45.6657 150.505 45.6828 150.505 47.0632V51.8571H153.755V46.9975C153.755 44.5725 153.397 43.3089 150.497 42.9462L153.967 36.8376H150.2L146.794 42.8366H145.893V36.8376H142.641V51.8547L142.638 51.8571ZM172.538 39.6691V44.6261C172.538 46.3352 172.95 47.387 174.063 48.5751L174.535 49.0791L175.034 48.5751C176.13 47.4065 176.534 46.2987 176.534 44.6261V39.6691H179.784V44.6261C179.784 48.8941 177.588 50.5399 176.337 51.8595H172.731C171.482 50.5399 169.283 48.8941 169.283 44.6261V39.6691H172.538Z" fill="#576071"/>
<path d="M149.397 69.8773L148.435 67.0774H143.48L142.536 69.8773H141.012L144.951 58.2201H146.982L150.921 69.8773H149.397ZM145.964 59.3035L143.88 65.7627H148.046L145.961 59.3035H145.964Z" fill="#576071"/>
<path d="M152.898 58.2176H157.117C159.62 58.2176 160.497 59.3035 160.497 61.0881V62.8216C160.497 64.6257 159.622 65.7091 157.117 65.7091H154.405V69.8749H152.9V58.2176H152.898ZM157.064 59.5664H154.403V64.3628H157.064C158.5 64.3628 158.989 63.961 158.989 62.8216V61.1052C158.989 59.9487 158.5 59.564 157.064 59.564V59.5664Z" fill="#576071"/>
<path d="M164.241 70.0563H162.736V58.3991H164.241V70.0563Z" fill="#576071"/>
<path d="M172.573 60.6025L172.346 70.0563H170.893L171.294 58.3991H173.203L176.563 67.4147L179.923 58.3991H181.832L182.233 70.0563H180.78L180.553 60.6025L177.578 68.5492H175.548L172.573 60.6025Z" fill="#576071"/>
<path d="M190.903 70.0563H189.659L189.571 69.4258C188.819 69.9517 187.838 70.2316 186.806 70.2316C185.213 70.2316 184.549 69.287 184.549 67.7799C184.549 66.0123 185.442 65.3818 187.156 65.3818H189.433V64.0524C189.433 62.9836 188.96 62.616 187.577 62.616C186.754 62.616 185.686 62.7572 185.021 62.896L184.863 61.7224C185.669 61.5131 186.754 61.3548 187.663 61.3548C190.095 61.3548 190.901 62.2995 190.901 64.1206V70.0539L190.903 70.0563ZM189.433 66.6088H187.261C186.35 66.6088 186.017 66.8888 186.017 67.7458C186.017 68.6028 186.175 68.9705 187.224 68.9705C187.96 68.9705 188.783 68.6905 189.43 68.2693V66.6064L189.433 66.6088Z" fill="#576071"/>
<path d="M197.397 62.7036C196.591 63.0883 195.663 63.6848 194.964 64.1742V70.0564H193.494V61.5325H194.772L194.86 62.7231C195.49 62.2337 196.364 61.7078 197.204 61.3573L197.397 62.7061V62.7036Z" fill="#576071"/>
<path d="M198.884 58.0485L200.355 57.8391V70.0587H198.884V58.0485ZM205.431 61.5325L202.385 65.7518L205.572 70.0587H203.839L200.722 65.7518L203.734 61.5325H205.431Z" fill="#576071"/>
<path d="M210.281 68.9705C211.121 68.9705 212.048 68.8122 212.976 68.5688L213.168 69.7423C212.362 70.0393 211.225 70.2316 210.157 70.2316C207.637 70.2316 206.777 69.024 206.777 67.0982V64.5418C206.777 62.7742 207.583 61.3548 210.12 61.3548C212.657 61.3548 213.324 62.8083 213.324 64.5759V66.3605H208.248V67.0787C208.248 68.4275 208.615 68.968 210.278 68.968L210.281 68.9705ZM208.25 65.1359H211.91V64.4347C211.91 63.2441 211.508 62.5795 210.125 62.5795C208.742 62.5795 208.253 63.2441 208.253 64.4347V65.1359H208.25Z" fill="#576071"/>
<path d="M220.085 69.9151C219.559 70.1075 218.929 70.2292 218.301 70.2292C216.864 70.2292 216.182 69.7033 216.182 68.2863V62.7547H214.678V61.5301H216.182V59.429L217.653 59.2196V61.5301H220.068L219.946 62.7547H217.653V68.0404C217.653 68.671 217.741 68.9851 218.527 68.9851C218.929 68.9851 219.35 68.9145 219.893 68.7757L220.085 69.9127V69.9151Z" fill="#576071"/>
<defs>
<linearGradient id="paint0_linear_741_2409" x1="-9.67992" y1="0.217765" x2="150.396" y2="42.9329" gradientUnits="userSpaceOnUse">
<stop stop-color="#16EEE3"/>
<stop offset="1" stop-color="#835AF8"/>
</linearGradient>
<linearGradient id="paint1_linear_741_2409" x1="-9.67992" y1="0.217765" x2="150.396" y2="42.9329" gradientUnits="userSpaceOnUse">
<stop stop-color="#16EEE3"/>
<stop offset="1" stop-color="#835AF8"/>
</linearGradient>
<linearGradient id="paint2_linear_741_2409" x1="-9.67992" y1="0.217765" x2="150.396" y2="42.9329" gradientUnits="userSpaceOnUse">
<stop stop-color="#16EEE3"/>
<stop offset="1" stop-color="#835AF8"/>
</linearGradient>
<linearGradient id="paint3_linear_741_2409" x1="-9.67992" y1="0.217765" x2="150.396" y2="42.9329" gradientUnits="userSpaceOnUse">
<stop stop-color="#16EEE3"/>
<stop offset="1" stop-color="#835AF8"/>
</linearGradient>
</defs>
</svg>
