<svg width="776" height="293" viewBox="0 0 776 293" fill="none" xmlns="http://www.w3.org/2000/svg">
<path d="M678.284 256.079C675.668 256.079 673.869 255.383 672.847 253.91C671.825 252.395 671.334 249.981 671.334 246.666V157.574H651.627C651.627 157.574 650.442 232.752 651.096 258.125C651.382 269.706 660.581 275.068 672.356 275.068C676.772 275.068 680.247 274.617 682.904 273.717V255.628C681.146 255.956 679.634 256.12 678.284 256.12V256.079Z" fill="black"/>
<path d="M452.557 274.003V256.201L513.926 204.637H454.07V185.975H541.646V203.777L480.155 255.342H543.241V274.003H452.476H452.557Z" fill="black"/>
<path d="M550.396 274.003V256.201L611.764 204.637H551.908V185.975H639.484V203.777L577.993 255.342H641.079V274.003H550.314H550.396Z" fill="black"/>
<path d="M776 226.982V237.908H708.253C709.398 244.497 712.342 249.285 717.003 252.273C721.704 255.26 728.614 256.733 737.772 256.733C749.506 256.733 760.341 255.219 770.317 252.191V270.648C760.014 273.799 749.057 275.354 737.445 275.354C720.641 275.354 707.967 271.384 699.504 263.445C691.041 255.506 686.789 244.374 686.789 229.969C686.789 215.564 691.041 204.309 699.504 196.411C707.967 188.554 719.415 184.584 733.766 184.584C747.217 184.584 757.602 188.185 764.961 195.347C772.32 202.509 776 213.067 776 226.982ZM708.09 222.603H755.925C755.925 209.711 748.566 203.286 733.766 203.286C726.325 203.286 720.478 204.801 716.226 207.788C711.974 210.816 709.275 215.727 708.09 222.603Z" fill="black"/>
<path d="M443.604 256.079C440.742 258.411 436.122 256.693 434.159 253.582C432.197 250.472 432.156 246.543 432.156 242.86C432.238 223.912 432.278 204.964 432.36 186.016H411.55C411.55 202.591 411.591 219.165 411.631 235.78C411.631 240.937 411.509 246.502 408.442 250.677C405.335 254.892 399.857 256.611 394.705 257.184C390.698 257.634 386.61 257.47 382.807 256.12C379.046 254.769 375.653 252.027 374.058 248.344C372.75 245.275 372.75 241.796 372.791 238.44C372.954 220.966 372.831 186.016 372.831 186.016H342.822V206.806H352.266C352.225 224.444 352.266 247.444 353.002 250.963C354.188 256.733 356.641 262.422 360.893 266.514C365.677 271.139 372.3 273.308 378.842 274.536C385.547 275.763 392.661 276.091 399.039 273.717C405.458 271.343 410.977 265.778 411.836 259.025C413.676 264.755 417.723 269.706 422.957 272.612C428.19 275.559 434.527 276.418 440.374 275.027C441.559 274.74 442.827 274.29 443.399 273.185C443.767 272.489 443.767 271.63 443.767 270.811C443.726 265.941 443.645 261.071 443.604 256.079Z" fill="black"/>
<path d="M323.974 167.846C316.287 161.134 304.676 157.779 289.14 157.779H233.291V178.568H245.679V273.963H266.448V239.504H293.31C306.925 239.504 317.35 235.985 324.587 228.946C331.824 221.907 335.463 212.085 335.463 199.562C335.463 185.116 331.619 174.558 323.933 167.846H323.974ZM309.214 216.546C305.453 220.597 300.138 222.603 293.187 222.603H266.489V176.44H288.649C297.971 176.44 304.676 178.159 308.724 181.637C312.771 185.116 314.815 191.296 314.815 200.258C314.815 207.092 312.935 212.494 309.173 216.546H309.214Z" fill="black"/>
<path d="M210.191 221.048C207.778 258.862 176.992 289.637 139.214 291.969C97.4294 294.548 62.3908 263.281 58.752 222.971C58.425 219.247 61.4505 216.055 65.171 216.055H129.402C132.304 216.055 134.635 213.722 134.635 210.817V146.811C134.635 143.046 137.824 140.018 141.544 140.386C181.735 144.151 212.807 179.264 210.15 221.048H210.191Z" fill="#00FF96"/>
<path d="M72.1214 38.0342C85.4091 45.8917 83.8145 60.1333 76.5779 71.633C76.3734 71.9604 76.2099 72.2469 76.0873 72.5743C74.0021 77.1169 77.7227 82.2734 82.7106 82.2734H110.758C115.746 82.2734 119.793 86.3249 119.793 91.3176V119.064C119.793 124.507 114.233 128.477 109.286 126.226C108.959 126.062 108.632 125.899 108.346 125.735C96.8569 118.532 82.6289 116.895 74.7789 130.196C68.4008 140.959 72.4894 155.773 83.4875 161.789C92.5231 166.7 100.496 162.69 108.632 158.065C108.918 157.901 109.204 157.738 109.531 157.615C114.438 155.528 119.834 159.538 119.834 164.858V193.055C119.834 198.048 115.787 202.1 110.799 202.1H9.03562C4.04763 202.1 0 198.048 0 193.055V91.3176C0 86.3249 4.04763 82.2734 9.03562 82.2734H38.1867C43.5018 82.2734 46.8544 76.544 44.2377 71.9195C39.6177 63.8165 35.611 55.7954 40.5172 46.7511C46.5273 35.7834 61.3277 31.691 72.0805 38.0342H72.1214Z" fill="#1E06C9"/>
<path d="M158.307 35.6606C150.171 23.0969 136.761 14.8302 122.696 24.4474C111.33 32.223 108.468 48.9201 116.645 60.0515C123.391 69.1776 133.245 68.8911 143.466 68.1136C146.819 67.8271 149.721 69.3413 151.48 71.7149C153.238 74.0885 153.401 77.4852 152.134 80.2681L136.965 113.212C134.43 118.737 138.437 124.998 144.529 124.998H178.382C181.939 124.957 185.373 122.952 186.682 119.637C187.663 117.182 187.581 114.317 186.109 111.739C180.999 102.776 176.583 93.9777 181.98 83.9922C188.562 71.9195 204.916 67.3769 216.773 74.375C231.451 83.01 229.652 98.684 221.72 111.411C220.126 113.99 219.962 116.854 220.862 119.351C222.088 122.788 225.645 124.835 229.284 124.835L263.709 124.753C270.251 124.753 274.217 117.509 270.66 111.943L201.441 3.82158C197.884 -1.7032 189.666 -1.13026 186.927 4.84468L173.394 34.1874C170.777 39.8349 163.05 41.3491 159.043 36.6019C158.798 36.3154 158.553 35.988 158.307 35.6606Z" fill="#1E06C9"/>
</svg>
