<svg viewBox="0 0 200 200" xmlns="http://www.w3.org/2000/svg">
  <path fill="#c1cde0" d="M39.3,-67.3C49.6,-62.1,55.6,-48.9,59.6,-36.3C63.6,-23.7,65.6,-11.9,66.9,0.7C68.1,13.3,68.7,26.7,63.4,37C58.2,47.4,47,54.8,35.5,61.1C24,67.3,12,72.4,0.2,72C-11.6,71.7,-23.2,66,-37.5,61.3C-51.8,56.7,-68.8,53.1,-75.6,43.1C-82.4,33,-78.9,16.5,-73.8,3C-68.6,-10.6,-61.8,-21.1,-56.8,-34.4C-51.9,-47.6,-48.9,-63.6,-39.8,-69.5C-30.6,-75.4,-15.3,-71.2,-0.4,-70.5C14.5,-69.8,29,-72.6,39.3,-67.3Z" transform="translate(100 100)" />
</svg>